<svg width="600" height="70" viewBox="0 0 457 59" fill="none" xmlns="http://www.w3.org/2000/svg">
<path d="M10.7656 16.6758V36.8555H20.8555C22.2383 36.8555 23.5391 36.5977 24.7578 36.082C25.9766 35.543 27.043 34.8164 27.957 33.9023C28.8711 32.9883 29.5859 31.9219 30.1016 30.7031C30.6406 29.4609 30.9102 28.1484 30.9102 26.7656C30.9102 25.3828 30.6406 24.082 30.1016 22.8633C29.5859 21.6211 28.8711 20.543 27.957 19.6289C27.043 18.7148 25.9766 18 24.7578 17.4844C23.5391 16.9453 22.2383 16.6758 20.8555 16.6758H10.7656ZM10.7656 57H0.675781V6.58594H20.8555C22.707 6.58594 24.4883 6.83203 26.1992 7.32422C27.9102 7.79297 29.5039 8.47266 30.9805 9.36328C32.4805 10.2305 33.8398 11.2852 35.0586 12.5273C36.3008 13.7461 37.3555 15.1055 38.2227 16.6055C39.1133 18.1055 39.793 19.7109 40.2617 21.4219C40.7539 23.1328 41 24.9141 41 26.7656C41 29.5312 40.4727 32.1445 39.418 34.6055C38.3633 37.043 36.9219 39.1758 35.0938 41.0039C33.2656 42.832 31.1211 44.2734 28.6602 45.3281C26.2227 46.3828 23.6211 46.9102 20.8555 46.9102H10.7656V57ZM82.3789 57H80.0586L76.332 51.832C75.418 52.6523 74.4453 53.4258 73.4141 54.1523C72.4062 54.8555 71.3398 55.4766 70.2148 56.0156C69.0898 56.5312 67.9297 56.9414 66.7344 57.2461C65.5625 57.5508 64.3672 57.7031 63.1484 57.7031C60.5 57.7031 58.0039 57.2578 55.6602 56.3672C53.3398 55.4766 51.3008 54.1875 49.543 52.5C47.8086 50.7891 46.4375 48.7031 45.4297 46.2422C44.4219 43.7812 43.918 40.9805 43.918 37.8398C43.918 34.9102 44.4219 32.2266 45.4297 29.7891C46.4375 27.3281 47.8086 25.2188 49.543 23.4609C51.3008 21.7031 53.3398 20.3438 55.6602 19.3828C58.0039 18.3984 60.5 17.9062 63.1484 17.9062C64.3672 17.9062 65.5742 18.0586 66.7695 18.3633C67.9648 18.668 69.125 19.0898 70.25 19.6289C71.375 20.168 72.4414 20.8008 73.4492 21.5273C74.4805 22.2539 75.4414 23.0391 76.332 23.8828L80.0586 19.418H82.3789V57ZM72.7109 37.8398C72.7109 36.5273 72.4531 35.2617 71.9375 34.043C71.4453 32.8008 70.7656 31.7109 69.8984 30.7734C69.0312 29.8125 68.0117 29.0508 66.8398 28.4883C65.6914 27.9023 64.4609 27.6094 63.1484 27.6094C61.8359 27.6094 60.5938 27.832 59.4219 28.2773C58.2734 28.7227 57.2656 29.3789 56.3984 30.2461C55.5547 31.1133 54.8867 32.1914 54.3945 33.4805C53.9023 34.7461 53.6562 36.1992 53.6562 37.8398C53.6562 39.4805 53.9023 40.9453 54.3945 42.2344C54.8867 43.5 55.5547 44.5664 56.3984 45.4336C57.2656 46.3008 58.2734 46.957 59.4219 47.4023C60.5938 47.8477 61.8359 48.0703 63.1484 48.0703C64.4609 48.0703 65.6914 47.7891 66.8398 47.2266C68.0117 46.6406 69.0312 45.8789 69.8984 44.9414C70.7656 43.9805 71.4453 42.8906 71.9375 41.6719C72.4531 40.4297 72.7109 39.1523 72.7109 37.8398ZM99.3242 57H89.7266V19.3477H92.0469L95.2109 23.0039C96.7578 21.5977 98.5039 20.5195 100.449 19.7695C102.418 18.9961 104.469 18.6094 106.602 18.6094C108.898 18.6094 111.066 19.0547 113.105 19.9453C115.145 20.8125 116.926 22.0195 118.449 23.5664C119.973 25.0898 121.168 26.8828 122.035 28.9453C122.926 30.9844 123.371 33.1641 123.371 35.4844V57H113.773V35.4844C113.773 34.5 113.586 33.5742 113.211 32.707C112.836 31.8164 112.32 31.043 111.664 30.3867C111.008 29.7305 110.246 29.2148 109.379 28.8398C108.512 28.4648 107.586 28.2773 106.602 28.2773C105.594 28.2773 104.645 28.4648 103.754 28.8398C102.863 29.2148 102.09 29.7305 101.434 30.3867C100.777 31.043 100.262 31.8164 99.8867 32.707C99.5117 33.5742 99.3242 34.5 99.3242 35.4844V57ZM163.133 26.8359L156.102 33.9023C155.75 32.918 155.27 32.0391 154.66 31.2656C154.051 30.4688 153.359 29.8008 152.586 29.2617C151.836 28.7227 151.016 28.3125 150.125 28.0312C149.234 27.75 148.32 27.6094 147.383 27.6094C146.07 27.6094 144.828 27.8789 143.656 28.418C142.508 28.957 141.5 29.7188 140.633 30.7031C139.789 31.6641 139.121 32.8125 138.629 34.1484C138.137 35.4844 137.891 36.9609 137.891 38.5781C137.891 39.8906 138.137 41.1211 138.629 42.2695C139.121 43.418 139.789 44.4258 140.633 45.293C141.5 46.1602 142.508 46.8398 143.656 47.332C144.828 47.8242 146.07 48.0703 147.383 48.0703C148.32 48.0703 149.223 47.9414 150.09 47.6836C150.957 47.4258 151.766 47.0625 152.516 46.5938C153.289 46.1016 153.969 45.5156 154.555 44.8359C155.164 44.1328 155.656 43.3594 156.031 42.5156L163.062 49.582C162.172 50.8477 161.141 51.9844 159.969 52.9922C158.82 54 157.566 54.8555 156.207 55.5586C154.871 56.2617 153.453 56.7891 151.953 57.1406C150.477 57.5156 148.953 57.7031 147.383 57.7031C144.734 57.7031 142.238 57.2109 139.895 56.2266C137.574 55.2188 135.535 53.8477 133.777 52.1133C132.043 50.3789 130.672 48.3516 129.664 46.0312C128.656 43.7109 128.152 41.2266 128.152 38.5781C128.152 35.6953 128.656 33 129.664 30.4922C130.672 27.9844 132.043 25.8047 133.777 23.9531C135.535 22.0781 137.574 20.6016 139.895 19.5234C142.238 18.4453 144.734 17.9062 147.383 17.9062C148.953 17.9062 150.488 18.1055 151.988 18.5039C153.512 18.9023 154.953 19.4883 156.312 20.2617C157.695 21.0117 158.961 21.9375 160.109 23.0391C161.281 24.1406 162.289 25.4062 163.133 26.8359ZM203.738 57H201.418L197.691 51.832C196.777 52.6523 195.805 53.4258 194.773 54.1523C193.766 54.8555 192.699 55.4766 191.574 56.0156C190.449 56.5312 189.289 56.9414 188.094 57.2461C186.922 57.5508 185.727 57.7031 184.508 57.7031C181.859 57.7031 179.363 57.2578 177.02 56.3672C174.699 55.4766 172.66 54.1875 170.902 52.5C169.168 50.7891 167.797 48.7031 166.789 46.2422C165.781 43.7812 165.277 40.9805 165.277 37.8398C165.277 34.9102 165.781 32.2266 166.789 29.7891C167.797 27.3281 169.168 25.2188 170.902 23.4609C172.66 21.7031 174.699 20.3438 177.02 19.3828C179.363 18.3984 181.859 17.9062 184.508 17.9062C185.727 17.9062 186.934 18.0586 188.129 18.3633C189.324 18.668 190.484 19.0898 191.609 19.6289C192.734 20.168 193.801 20.8008 194.809 21.5273C195.84 22.2539 196.801 23.0391 197.691 23.8828L201.418 19.418H203.738V57ZM194.07 37.8398C194.07 36.5273 193.812 35.2617 193.297 34.043C192.805 32.8008 192.125 31.7109 191.258 30.7734C190.391 29.8125 189.371 29.0508 188.199 28.4883C187.051 27.9023 185.82 27.6094 184.508 27.6094C183.195 27.6094 181.953 27.832 180.781 28.2773C179.633 28.7227 178.625 29.3789 177.758 30.2461C176.914 31.1133 176.246 32.1914 175.754 33.4805C175.262 34.7461 175.016 36.1992 175.016 37.8398C175.016 39.4805 175.262 40.9453 175.754 42.2344C176.246 43.5 176.914 44.5664 177.758 45.4336C178.625 46.3008 179.633 46.957 180.781 47.4023C181.953 47.8477 183.195 48.0703 184.508 48.0703C185.82 48.0703 187.051 47.7891 188.199 47.2266C189.371 46.6406 190.391 45.8789 191.258 44.9414C192.125 43.9805 192.805 42.8906 193.297 41.6719C193.812 40.4297 194.07 39.1523 194.07 37.8398ZM220.754 57H211.086V4.37109H220.754V37.5586L235.062 19.418H246.102L233.621 35.0977L246.102 57H235.062L227.434 43.3242L220.754 52.1836V57ZM263.68 47.7891C264.055 47.9062 264.43 47.9883 264.805 48.0352C265.18 48.0586 265.555 48.0703 265.93 48.0703C266.867 48.0703 267.77 47.9414 268.637 47.6836C269.504 47.4258 270.312 47.0625 271.062 46.5938C271.836 46.1016 272.516 45.5156 273.102 44.8359C273.711 44.1328 274.203 43.3594 274.578 42.5156L281.609 49.582C280.719 50.8477 279.688 51.9844 278.516 52.9922C277.367 54 276.113 54.8555 274.754 55.5586C273.418 56.2617 272 56.7891 270.5 57.1406C269.023 57.5156 267.5 57.7031 265.93 57.7031C263.281 57.7031 260.785 57.2109 258.441 56.2266C256.121 55.2422 254.082 53.8711 252.324 52.1133C250.59 50.3555 249.219 48.2695 248.211 45.8555C247.203 43.418 246.699 40.7461 246.699 37.8398C246.699 34.8633 247.203 32.1445 248.211 29.6836C249.219 27.2227 250.59 25.125 252.324 23.3906C254.082 21.6562 256.121 20.3086 258.441 19.3477C260.785 18.3867 263.281 17.9062 265.93 17.9062C267.5 17.9062 269.035 18.0938 270.535 18.4688C272.035 18.8438 273.453 19.3828 274.789 20.0859C276.148 20.7891 277.414 21.6562 278.586 22.6875C279.758 23.6953 280.789 24.832 281.68 26.0977L263.68 47.7891ZM268.602 27.9961C268.156 27.832 267.711 27.7266 267.266 27.6797C266.844 27.6328 266.398 27.6094 265.93 27.6094C264.617 27.6094 263.375 27.8555 262.203 28.3477C261.055 28.8164 260.047 29.4961 259.18 30.3867C258.336 31.2773 257.668 32.3555 257.176 33.6211C256.684 34.8633 256.438 36.2695 256.438 37.8398C256.438 38.1914 256.449 38.5898 256.473 39.0352C256.52 39.4805 256.578 39.9375 256.648 40.4062C256.742 40.8516 256.848 41.2852 256.965 41.707C257.082 42.1289 257.234 42.5039 257.422 42.832L268.602 27.9961ZM347.984 51.832C345.641 53.8477 343.016 55.3945 340.109 56.4727C337.203 57.5508 334.191 58.0898 331.074 58.0898C328.684 58.0898 326.375 57.7734 324.148 57.1406C321.945 56.5312 319.871 55.6641 317.926 54.5391C316.004 53.3906 314.246 52.0195 312.652 50.4258C311.059 48.832 309.688 47.0742 308.539 45.1523C307.414 43.207 306.535 41.1328 305.902 38.9297C305.293 36.7031 304.988 34.3945 304.988 32.0039C304.988 29.6133 305.293 27.3047 305.902 25.0781C306.535 22.8516 307.414 20.7773 308.539 18.8555C309.688 16.9102 311.059 15.1406 312.652 13.5469C314.246 11.9531 316.004 10.5938 317.926 9.46875C319.871 8.32031 321.945 7.44141 324.148 6.83203C326.375 6.19922 328.684 5.88281 331.074 5.88281C334.191 5.88281 337.203 6.42187 340.109 7.5C343.016 8.55469 345.641 10.1016 347.984 12.1406L342.641 20.9297C341.164 19.3359 339.418 18.1172 337.402 17.2734C335.387 16.4062 333.277 15.9727 331.074 15.9727C328.848 15.9727 326.762 16.3945 324.816 17.2383C322.871 18.082 321.172 19.2305 319.719 20.6836C318.266 22.1133 317.117 23.8125 316.273 25.7812C315.43 27.7266 315.008 29.8008 315.008 32.0039C315.008 34.207 315.43 36.2812 316.273 38.2266C317.117 40.1484 318.266 41.8359 319.719 43.2891C321.172 44.7422 322.871 45.8906 324.816 46.7344C326.762 47.5781 328.848 48 331.074 48C333.277 48 335.387 47.5781 337.402 46.7344C339.418 45.8672 341.164 44.6367 342.641 43.043L347.984 51.832ZM387.957 57H385.637L381.91 51.832C380.996 52.6523 380.023 53.4258 378.992 54.1523C377.984 54.8555 376.918 55.4766 375.793 56.0156C374.668 56.5312 373.508 56.9414 372.312 57.2461C371.141 57.5508 369.945 57.7031 368.727 57.7031C366.078 57.7031 363.582 57.2578 361.238 56.3672C358.918 55.4766 356.879 54.1875 355.121 52.5C353.387 50.7891 352.016 48.7031 351.008 46.2422C350 43.7812 349.496 40.9805 349.496 37.8398C349.496 34.9102 350 32.2266 351.008 29.7891C352.016 27.3281 353.387 25.2188 355.121 23.4609C356.879 21.7031 358.918 20.3438 361.238 19.3828C363.582 18.3984 366.078 17.9062 368.727 17.9062C369.945 17.9062 371.152 18.0586 372.348 18.3633C373.543 18.668 374.703 19.0898 375.828 19.6289C376.953 20.168 378.02 20.8008 379.027 21.5273C380.059 22.2539 381.02 23.0391 381.91 23.8828L385.637 19.418H387.957V57ZM378.289 37.8398C378.289 36.5273 378.031 35.2617 377.516 34.043C377.023 32.8008 376.344 31.7109 375.477 30.7734C374.609 29.8125 373.59 29.0508 372.418 28.4883C371.27 27.9023 370.039 27.6094 368.727 27.6094C367.414 27.6094 366.172 27.832 365 28.2773C363.852 28.7227 362.844 29.3789 361.977 30.2461C361.133 31.1133 360.465 32.1914 359.973 33.4805C359.48 34.7461 359.234 36.1992 359.234 37.8398C359.234 39.4805 359.48 40.9453 359.973 42.2344C360.465 43.5 361.133 44.5664 361.977 45.4336C362.844 46.3008 363.852 46.957 365 47.4023C366.172 47.8477 367.414 48.0703 368.727 48.0703C370.039 48.0703 371.27 47.7891 372.418 47.2266C373.59 46.6406 374.609 45.8789 375.477 44.9414C376.344 43.9805 377.023 42.8906 377.516 41.6719C378.031 40.4297 378.289 39.1523 378.289 37.8398ZM407.504 57H397.906V28.9102H393.23V19.3477H397.906V17.5547C397.906 15.2344 398.34 13.0547 399.207 11.0156C400.098 8.97656 401.305 7.20703 402.828 5.70703C404.375 4.18359 406.168 2.98828 408.207 2.12109C410.246 1.23047 412.426 0.785156 414.746 0.785156H421.953V10.3477H414.746C413.715 10.3477 412.754 10.5352 411.863 10.9102C410.996 11.2617 410.234 11.7656 409.578 12.4219C408.945 13.0547 408.441 13.8164 408.066 14.707C407.691 15.5742 407.504 16.5234 407.504 17.5547V19.3477H419.281V28.9102H407.504V57ZM438.125 47.7891C438.5 47.9062 438.875 47.9883 439.25 48.0352C439.625 48.0586 440 48.0703 440.375 48.0703C441.312 48.0703 442.215 47.9414 443.082 47.6836C443.949 47.4258 444.758 47.0625 445.508 46.5938C446.281 46.1016 446.961 45.5156 447.547 44.8359C448.156 44.1328 448.648 43.3594 449.023 42.5156L456.055 49.582C455.164 50.8477 454.133 51.9844 452.961 52.9922C451.812 54 450.559 54.8555 449.199 55.5586C447.863 56.2617 446.445 56.7891 444.945 57.1406C443.469 57.5156 441.945 57.7031 440.375 57.7031C437.727 57.7031 435.23 57.2109 432.887 56.2266C430.566 55.2422 428.527 53.8711 426.77 52.1133C425.035 50.3555 423.664 48.2695 422.656 45.8555C421.648 43.418 421.145 40.7461 421.145 37.8398C421.145 34.8633 421.648 32.1445 422.656 29.6836C423.664 27.2227 425.035 25.125 426.77 23.3906C428.527 21.6562 430.566 20.3086 432.887 19.3477C435.23 18.3867 437.727 17.9062 440.375 17.9062C441.945 17.9062 443.48 18.0938 444.98 18.4688C446.48 18.8438 447.898 19.3828 449.234 20.0859C450.594 20.7891 451.859 21.6562 453.031 22.6875C454.203 23.6953 455.234 24.832 456.125 26.0977L438.125 47.7891ZM443.047 27.9961C442.602 27.832 442.156 27.7266 441.711 27.6797C441.289 27.6328 440.844 27.6094 440.375 27.6094C439.062 27.6094 437.82 27.8555 436.648 28.3477C435.5 28.8164 434.492 29.4961 433.625 30.3867C432.781 31.2773 432.113 32.3555 431.621 33.6211C431.129 34.8633 430.883 36.2695 430.883 37.8398C430.883 38.1914 430.895 38.5898 430.918 39.0352C430.965 39.4805 431.023 39.9375 431.094 40.4062C431.188 40.8516 431.293 41.2852 431.41 41.707C431.527 42.1289 431.68 42.5039 431.867 42.832L443.047 27.9961Z" fill="#9C008D"/>
</svg>
