<svg width="290" height="62" viewBox="0 0 290 62" fill="none" xmlns="http://www.w3.org/2000/svg">
<g filter="url(#filter0_d_19_48)">
<path d="M30.0195 53H19.9648V12.6758H4.8125V2.58594H45.1367V12.6758H30.0195V53ZM59.0586 53H49.4609V0.371094H59.0586V17C60.207 16.1328 61.3906 15.5234 62.6094 15.1719C63.8281 14.7969 65.0703 14.6094 66.3359 14.6094C68.6562 14.6094 70.8359 15.0547 72.875 15.9453C74.9141 16.8125 76.6836 18.0195 78.1836 19.5664C79.707 21.0898 80.9023 22.8828 81.7695 24.9453C82.6602 26.9844 83.1055 29.1641 83.1055 31.4844V53H73.4375V31.4844H73.5078C73.5078 30.5 73.3203 29.5742 72.9453 28.707C72.5703 27.8164 72.0547 27.043 71.3984 26.3867C70.7422 25.7305 69.9805 25.2148 69.1133 24.8398C68.2461 24.4648 67.3203 24.2773 66.3359 24.2773C65.3281 24.2773 64.3789 24.4648 63.4883 24.8398C62.5977 25.2148 61.8242 25.7305 61.168 26.3867C60.5117 27.043 59.9961 27.8164 59.6211 28.707C59.2461 29.5742 59.0586 30.5 59.0586 31.4844V53ZM104.938 43.7891C105.312 43.9062 105.688 43.9883 106.062 44.0352C106.438 44.0586 106.812 44.0703 107.188 44.0703C108.125 44.0703 109.027 43.9414 109.895 43.6836C110.762 43.4258 111.57 43.0625 112.32 42.5938C113.094 42.1016 113.773 41.5156 114.359 40.8359C114.969 40.1328 115.461 39.3594 115.836 38.5156L122.867 45.582C121.977 46.8477 120.945 47.9844 119.773 48.9922C118.625 50 117.371 50.8555 116.012 51.5586C114.676 52.2617 113.258 52.7891 111.758 53.1406C110.281 53.5156 108.758 53.7031 107.188 53.7031C104.539 53.7031 102.043 53.2109 99.6992 52.2266C97.3789 51.2422 95.3398 49.8711 93.582 48.1133C91.8477 46.3555 90.4766 44.2695 89.4688 41.8555C88.4609 39.418 87.957 36.7461 87.957 33.8398C87.957 30.8633 88.4609 28.1445 89.4688 25.6836C90.4766 23.2227 91.8477 21.125 93.582 19.3906C95.3398 17.6562 97.3789 16.3086 99.6992 15.3477C102.043 14.3867 104.539 13.9062 107.188 13.9062C108.758 13.9062 110.293 14.0938 111.793 14.4688C113.293 14.8438 114.711 15.3828 116.047 16.0859C117.406 16.7891 118.672 17.6562 119.844 18.6875C121.016 19.6953 122.047 20.832 122.938 22.0977L104.938 43.7891ZM109.859 23.9961C109.414 23.832 108.969 23.7266 108.523 23.6797C108.102 23.6328 107.656 23.6094 107.188 23.6094C105.875 23.6094 104.633 23.8555 103.461 24.3477C102.312 24.8164 101.305 25.4961 100.438 26.3867C99.5938 27.2773 98.9258 28.3555 98.4336 29.6211C97.9414 30.8633 97.6953 32.2695 97.6953 33.8398C97.6953 34.1914 97.707 34.5898 97.7305 35.0352C97.7773 35.4805 97.8359 35.9375 97.9062 36.4062C98 36.8516 98.1055 37.2852 98.2227 37.707C98.3398 38.1289 98.4922 38.5039 98.6797 38.832L109.859 23.9961ZM159.078 12.6758V32.8555H169.168C170.551 32.8555 171.852 32.5977 173.07 32.082C174.289 31.543 175.355 30.8164 176.27 29.9023C177.184 28.9883 177.898 27.9219 178.414 26.7031C178.953 25.4609 179.223 24.1484 179.223 22.7656C179.223 21.3828 178.953 20.082 178.414 18.8633C177.898 17.6211 177.184 16.543 176.27 15.6289C175.355 14.7148 174.289 14 173.07 13.4844C171.852 12.9453 170.551 12.6758 169.168 12.6758H159.078ZM159.078 53H148.988V2.58594H169.168C171.02 2.58594 172.801 2.83203 174.512 3.32422C176.223 3.79297 177.816 4.47266 179.293 5.36328C180.793 6.23047 182.152 7.28516 183.371 8.52734C184.613 9.74609 185.668 11.1055 186.535 12.6055C187.426 14.1055 188.105 15.7109 188.574 17.4219C189.066 19.1328 189.312 20.9141 189.312 22.7656C189.312 24.5 189.09 26.1875 188.645 27.8281C188.223 29.4688 187.602 31.0273 186.781 32.5039C185.984 33.9805 185 35.3398 183.828 36.582C182.656 37.8242 181.344 38.9023 179.891 39.8164L185.48 53H174.758L170.363 42.8398L159.078 42.9102V53ZM209.492 43.7891C209.867 43.9062 210.242 43.9883 210.617 44.0352C210.992 44.0586 211.367 44.0703 211.742 44.0703C212.68 44.0703 213.582 43.9414 214.449 43.6836C215.316 43.4258 216.125 43.0625 216.875 42.5938C217.648 42.1016 218.328 41.5156 218.914 40.8359C219.523 40.1328 220.016 39.3594 220.391 38.5156L227.422 45.582C226.531 46.8477 225.5 47.9844 224.328 48.9922C223.18 50 221.926 50.8555 220.566 51.5586C219.23 52.2617 217.812 52.7891 216.312 53.1406C214.836 53.5156 213.312 53.7031 211.742 53.7031C209.094 53.7031 206.598 53.2109 204.254 52.2266C201.934 51.2422 199.895 49.8711 198.137 48.1133C196.402 46.3555 195.031 44.2695 194.023 41.8555C193.016 39.418 192.512 36.7461 192.512 33.8398C192.512 30.8633 193.016 28.1445 194.023 25.6836C195.031 23.2227 196.402 21.125 198.137 19.3906C199.895 17.6562 201.934 16.3086 204.254 15.3477C206.598 14.3867 209.094 13.9062 211.742 13.9062C213.312 13.9062 214.848 14.0938 216.348 14.4688C217.848 14.8438 219.266 15.3828 220.602 16.0859C221.961 16.7891 223.227 17.6562 224.398 18.6875C225.57 19.6953 226.602 20.832 227.492 22.0977L209.492 43.7891ZM214.414 23.9961C213.969 23.832 213.523 23.7266 213.078 23.6797C212.656 23.6328 212.211 23.6094 211.742 23.6094C210.43 23.6094 209.188 23.8555 208.016 24.3477C206.867 24.8164 205.859 25.4961 204.992 26.3867C204.148 27.2773 203.48 28.3555 202.988 29.6211C202.496 30.8633 202.25 32.2695 202.25 33.8398C202.25 34.1914 202.262 34.5898 202.285 35.0352C202.332 35.4805 202.391 35.9375 202.461 36.4062C202.555 36.8516 202.66 37.2852 202.777 37.707C202.895 38.1289 203.047 38.5039 203.234 38.832L214.414 23.9961ZM268.52 53H266.199L262.473 47.832C261.559 48.6523 260.586 49.4258 259.555 50.1523C258.547 50.8555 257.48 51.4766 256.355 52.0156C255.23 52.5312 254.07 52.9414 252.875 53.2461C251.703 53.5508 250.508 53.7031 249.289 53.7031C246.641 53.7031 244.145 53.2578 241.801 52.3672C239.48 51.4766 237.441 50.1875 235.684 48.5C233.949 46.7891 232.578 44.7031 231.57 42.2422C230.562 39.7812 230.059 36.9805 230.059 33.8398C230.059 30.9102 230.562 28.2266 231.57 25.7891C232.578 23.3281 233.949 21.2188 235.684 19.4609C237.441 17.7031 239.48 16.3438 241.801 15.3828C244.145 14.3984 246.641 13.9062 249.289 13.9062C250.508 13.9062 251.715 14.0586 252.91 14.3633C254.105 14.668 255.266 15.0898 256.391 15.6289C257.516 16.168 258.582 16.8008 259.59 17.5273C260.621 18.2539 261.582 19.0391 262.473 19.8828L266.199 15.418H268.52V53ZM258.852 33.8398C258.852 32.5273 258.594 31.2617 258.078 30.043C257.586 28.8008 256.906 27.7109 256.039 26.7734C255.172 25.8125 254.152 25.0508 252.98 24.4883C251.832 23.9023 250.602 23.6094 249.289 23.6094C247.977 23.6094 246.734 23.832 245.562 24.2773C244.414 24.7227 243.406 25.3789 242.539 26.2461C241.695 27.1133 241.027 28.1914 240.535 29.4805C240.043 30.7461 239.797 32.1992 239.797 33.8398C239.797 35.4805 240.043 36.9453 240.535 38.2344C241.027 39.5 241.695 40.5664 242.539 41.4336C243.406 42.3008 244.414 42.957 245.562 43.4023C246.734 43.8477 247.977 44.0703 249.289 44.0703C250.602 44.0703 251.832 43.7891 252.98 43.2266C254.152 42.6406 255.172 41.8789 256.039 40.9414C256.906 39.9805 257.586 38.8906 258.078 37.6719C258.594 36.4297 258.852 35.1523 258.852 33.8398ZM285.535 53H275.867V0.371094H285.535V53Z" fill="#57009C"/>
</g>
<defs>
<filter id="filter0_d_19_48" x="0.8125" y="0.371094" width="288.723" height="61.332" filterUnits="userSpaceOnUse" color-interpolation-filters="sRGB">
<feFlood flood-opacity="0" result="BackgroundImageFix"/>
<feColorMatrix in="SourceAlpha" type="matrix" values="0 0 0 0 0 0 0 0 0 0 0 0 0 0 0 0 0 0 127 0" result="hardAlpha"/>
<feOffset dy="4"/>
<feGaussianBlur stdDeviation="2"/>
<feComposite in2="hardAlpha" operator="out"/>
<feColorMatrix type="matrix" values="0 0 0 0 0 0 0 0 0 0 0 0 0 0 0 0 0 0 0.25 0"/>
<feBlend mode="normal" in2="BackgroundImageFix" result="effect1_dropShadow_19_48"/>
<feBlend mode="normal" in="SourceGraphic" in2="effect1_dropShadow_19_48" result="shape"/>
</filter>
</defs>
</svg>
